<svg xmlns="http://www.w3.org/2000/svg" viewBox="0 0 431.04 221.34"><defs><style>.cls-1{fill:#434a9e;}</style></defs><title>Câmara do Porto</title><g id="Layer_2" data-name="Layer 2"><g id="Layer_1-2" data-name="Layer 1"><path class="cls-1" d="M41,38.43h1.82c2.65,0,4.61.76,4.61,3.44s-2,3.63-4.61,3.63H41Zm0,12.71h3.1c6.63,0,10-4.27,10-9.27s-3.36-9.07-10-9.07H34.5V59.27H41Z"/><path class="cls-1" d="M63.5,46.71a3.47,3.47,0,0,1,3.41,3.75,3.42,3.42,0,1,1-6.81,0,3.44,3.44,0,0,1,3.4-3.75m0,13a9.25,9.25,0,1,0-9.45-9.27,9.19,9.19,0,0,0,9.45,9.27"/><path class="cls-1" d="M84,46.69h2.19v-5s-2.44-.07-2.89-.07c-1.17,0-2.45.86-2.82,2.87v-2.8H74.63V59.27h6.05V51.18c0-2.23.68-4.49,3.29-4.49"/><path class="cls-1" d="M90.56,55.07c0,3.64,2.42,4.43,5.26,4.43,1.48,0,4.31-.23,4.31-.23V54.09a16.54,16.54,0,0,1-2,.11c-.69,0-1.55-.15-1.55-1.17V46.64h3.51v-5H96.62V35.41H90.56v6.28H88v5h2.6Z"/><path class="cls-1" d="M110.87,46.71a3.47,3.47,0,0,1,3.4,3.75,3.42,3.42,0,1,1-6.81,0,3.44,3.44,0,0,1,3.41-3.75m0,13a9.25,9.25,0,1,0-9.46-9.27,9.19,9.19,0,0,0,9.46,9.27"/><path class="cls-1" d="M125.09,52.12a3.81,3.81,0,1,0,3.82,3.82,3.8,3.8,0,0,0-3.82-3.82"/><path class="cls-1" d="M419.39,11.65V131.06h-67V55.84l-32-32-32,32v75.22h-67V11.65Zm0,141.33v56.71H404.83V189H393.18v20.69H378.62V189H367v20.69H352.4V189H340.75v20.69H326.19V189H314.54v20.69H300V189H288.33v20.69H273.77V189H262.12v20.69H247.56V189H235.91v20.69H221.34v-67H300V60.66l20.39-20.39,20.38,20.39v82.05h78.64ZM11.65,209.69v-198h198v198ZM209.69,0H0V221.34H431V0H209.69Z"/><rect class="cls-1" x="393.18" y="152.98" width="11.65" height="26.21"/><rect class="cls-1" x="366.97" y="152.98" width="11.65" height="26.21"/><rect class="cls-1" x="340.75" y="152.98" width="11.65" height="26.21"/><rect class="cls-1" x="314.54" y="152.98" width="11.65" height="26.21"/><rect class="cls-1" x="313.95" y="69.89" width="11.65" height="26.21"/><rect class="cls-1" x="288.33" y="152.98" width="11.65" height="26.21"/><rect class="cls-1" x="262.12" y="152.98" width="11.65" height="26.21"/><rect class="cls-1" x="235.91" y="152.98" width="11.65" height="26.21"/><path class="cls-1" d="M47.14,97.52a12.51,12.51,0,0,0,12.34-8.79H57a10,10,0,0,1-9.88,6.74c-6.59,0-11.1-5-11.1-11.66s4.51-11.62,11.1-11.62A10,10,0,0,1,57,78.92h2.46A12.53,12.53,0,0,0,47.14,70.1,13.27,13.27,0,0,0,33.7,83.81,13.3,13.3,0,0,0,47.14,97.52"/><polygon class="cls-1" points="67.89 71.01 64.59 77.03 67.05 77.03 69.48 72.72 71.9 77.03 74.36 77.03 71.07 71.01 67.89 71.01"/><path class="cls-1" d="M64.6,92.4c0-1.74,1.13-3,3.59-3h3.1a2.89,2.89,0,0,0,2.16-.64v2.31c0,3-2.42,4.43-5,4.43-2.8,0-3.89-1.71-3.89-3.15M73.45,95v2.08h2.31V85.59c0-3.45-2.38-5.68-6.36-5.68A10.9,10.9,0,0,0,63,82l1.09,1.74A9.05,9.05,0,0,1,69.25,82c2.24,0,4.2,1,4.2,3.56V86c0,.9-.45,1.51-1.63,1.51h-4c-3.44,0-5.64,1.82-5.64,4.88s2.43,5.12,6.06,5.12c2,0,4.28-.88,5.22-2.54"/><path class="cls-1" d="M104.2,86V97.06h2.31V86c0-3.68-2-6.06-6-6.06a7.72,7.72,0,0,0-6.21,3.22c-.79-2-2.65-3.22-5.45-3.22a7.11,7.11,0,0,0-5.68,2.84V80.36H81v16.7h2.31V84.91c1.59-1.86,3.37-3,5.34-3a3.69,3.69,0,0,1,4,4V97.06h2.31V86.61c0-.53,0-1.1-.07-1.63,1.62-1.89,3.44-3,5.45-3a3.68,3.68,0,0,1,3.94,4"/><path class="cls-1" d="M116.31,89.45h3.1a2.9,2.9,0,0,0,2.16-.64v2.31c0,3-2.42,4.43-5,4.43-2.8,0-3.9-1.71-3.9-3.14,0-1.75,1.14-3,3.6-3m0,8.07c2,0,4.28-.87,5.22-2.54v2.08h2.31V85.59c0-3.45-2.38-5.68-6.36-5.68a11,11,0,0,0-6.4,2.12l1.1,1.74A9.05,9.05,0,0,1,117.37,82c2.23,0,4.2,1,4.2,3.56V86c0,.91-.45,1.52-1.63,1.52h-4c-3.44,0-5.64,1.82-5.64,4.89s2.42,5.11,6.06,5.11"/><path class="cls-1" d="M131.26,83.2V80.36h-2.19v16.7h2.27V87.71c0-3.94,2.12-5.3,5.07-5.3h1.14V80.14c-.46,0-.87-.08-1.25-.08a5.25,5.25,0,0,0-5,3.14"/><path class="cls-1" d="M150.91,91.12c0,3-2.42,4.43-5,4.43-2.8,0-3.89-1.71-3.89-3.15,0-1.74,1.13-3,3.59-3h3.11a2.88,2.88,0,0,0,2.15-.64Zm-1.63-3.6h-4c-3.44,0-5.64,1.82-5.64,4.88s2.43,5.12,6.06,5.12c2,0,4.28-.87,5.22-2.54v2.08h2.31V85.59c0-3.45-2.38-5.68-6.36-5.68a11,11,0,0,0-6.4,2.12l1.1,1.74A9.05,9.05,0,0,1,146.71,82c2.23,0,4.2,1,4.2,3.56V86c0,.9-.45,1.51-1.63,1.51"/><polygon class="cls-1" points="47.67 127.2 38.96 108.42 35.44 108.42 35.44 134.92 37.67 134.92 37.67 111.22 46.34 129.92 48.8 129.92 57.48 111.22 57.48 134.92 59.82 134.92 59.82 108.42 56.3 108.42 47.67 127.2"/><path class="cls-1" d="M77.69,128.75c0,3-2.08,4.58-4.85,4.58S68,131.78,68,128.75V118.22H65.69V129c0,3.52,2.5,6.4,7.15,6.4S80,132.5,80,129V118.22H77.69Z"/><path class="cls-1" d="M93.4,117.77a7.56,7.56,0,0,0-6,2.84v-2.39H85.15v16.7h2.31V122.77a7.53,7.53,0,0,1,5.56-3,3.84,3.84,0,0,1,4.13,4.13v11h2.31V123.83c0-3.68-2.15-6.06-6.06-6.06"/><polygon class="cls-1" points="102.6 120.16 105.25 120.16 105.25 134.92 107.56 134.92 107.56 118.22 102.6 118.22 102.6 120.16"/><path class="cls-1" d="M106.24,110.16a2,2,0,1,0,2,2,2,2,0,0,0-2-2"/><path class="cls-1" d="M120.36,119.81a6,6,0,0,1,5.49,3.34l2-1.14a8.46,8.46,0,0,0-7.46-4.24,8.81,8.81,0,0,0,0,17.61,8.46,8.46,0,0,0,7.46-4.24l-2-1.14a6,6,0,0,1-5.49,3.37c-3.71,0-6.28-3-6.28-6.78s2.57-6.78,6.28-6.78"/><polygon class="cls-1" points="129.75 120.16 132.4 120.16 132.4 134.92 134.71 134.92 134.71 118.22 129.75 118.22 129.75 120.16"/><path class="cls-1" d="M133.38,110.16a2,2,0,1,0,2,2,2,2,0,0,0-2-2"/><path class="cls-1" d="M148.6,133.37c-3.71,0-6.32-3-6.32-6.78s2.61-6.78,6.32-6.78,6.29,3,6.29,6.78-2.58,6.78-6.29,6.78m.23-15.6a7.2,7.2,0,0,0-6.44,3.71v-3.26h-2.31v23.33h2.31v-9.77a7.16,7.16,0,0,0,6.37,3.6,8.41,8.41,0,0,0,8.48-8.79c0-5.11-3.64-8.82-8.41-8.82"/><path class="cls-1" d="M171.32,129c0,3-2.42,4.43-5,4.43-2.8,0-3.9-1.71-3.9-3.14,0-1.75,1.14-3,3.6-3h3.1a2.92,2.92,0,0,0,2.16-.64Zm-4-11.21a10.94,10.94,0,0,0-6.4,2.12l1.1,1.74a9,9,0,0,1,5.15-1.82c2.23,0,4.2,1,4.2,3.56v.5c0,.9-.45,1.51-1.63,1.51h-4c-3.45,0-5.64,1.82-5.64,4.89s2.42,5.11,6.06,5.11c2,0,4.27-.87,5.22-2.54v2.08h2.31V123.45c0-3.45-2.39-5.68-6.36-5.68"/><rect class="cls-1" x="178.82" y="108.42" width="2.31" height="26.5"/></g></g></svg>