<svg xmlns="http://www.w3.org/2000/svg" viewBox="0 0 423.17 146.05"><defs><style>.cls-1{fill:#332f82;}</style></defs><title>CMPorto</title><g id="Layer_2" data-name="Layer 2"><g id="Parcerias"><g id="Porto"><path class="cls-1" d="M56.45,56.19h3.9c5.68,0,9.91,1.63,9.91,7.39s-4.23,7.8-9.91,7.8h-3.9Zm0,27.29h6.66c14.21,0,21.44-9.17,21.44-19.9S77.32,44.09,63.11,44.09H42.56v56.85H56.45Z"/><path class="cls-1" d="M104.85,74c4.23,0,7.32,3.33,7.32,8s-3.09,8.12-7.32,8.12-7.3-3.49-7.3-8.12,3-8,7.3-8m0,27.94c11.29,0,20.31-8.37,20.31-19.9s-9-19.82-20.31-19.82S84.55,70.49,84.55,82s9,19.9,20.3,19.9"/><path class="cls-1" d="M141.74,83.56c0-4.79,1.46-9.64,7.06-9.64h4.71V63.18S148.28,63,147.3,63c-2.51,0-5.27,1.85-6.05,6.15v-6H128.74v37.76h13Z"/><path class="cls-1" d="M163,91.93c0,7.79,5.2,9.5,11.29,9.5,3.17,0,9.26-.49,9.26-.49V89.82a35.2,35.2,0,0,1-4.22.24c-1.47,0-3.33-.32-3.33-2.52V73.82h7.55V63.18H176V49.7H163V63.18h-5.6V73.84H163Z"/><path class="cls-1" d="M206.56,74c4.22,0,7.31,3.33,7.31,8s-3.09,8.12-7.31,8.12-7.31-3.49-7.31-8.12,3-8,7.31-8m0,27.94c11.28,0,20.3-8.37,20.3-19.9s-9-19.82-20.3-19.82-20.3,8.29-20.3,19.82,9,19.9,20.3,19.9"/><path class="cls-1" d="M237.1,101.92A8.17,8.17,0,1,0,229,93.79a8.16,8.16,0,0,0,8.12,8.13"/><path class="cls-1" d="M415.48,86.48h-44.2V36.84L350.14,15.7,329,36.84V86.48H284.8V7.69H415.48Zm0,14.46v37.43h-9.61V124.72h-7.68v13.65h-9.61V124.72h-7.69v13.65h-9.61V124.72H363.6v13.65H354V124.72H346.3v13.65h-9.61V124.72H329v13.65h-9.6V124.72h-7.69v13.65H302.1V124.72h-7.69v13.65H284.8V94.17h51.89V40l13.45-13.46L363.6,40V94.17h51.88ZM276.41,138.37H7.69V7.69H276.41ZM284.09,0H0V146.05H423.17V0Z"/><rect class="cls-1" x="398.19" y="100.94" width="7.69" height="17.3"/><rect class="cls-1" x="380.89" y="100.94" width="7.69" height="17.3"/><rect class="cls-1" x="363.6" y="100.94" width="7.69" height="17.3"/><rect class="cls-1" x="346.3" y="100.94" width="7.69" height="17.3"/><rect class="cls-1" x="345.91" y="46.12" width="7.69" height="17.3"/><rect class="cls-1" x="329" y="100.94" width="7.69" height="17.3"/><rect class="cls-1" x="311.71" y="100.94" width="7.69" height="17.3"/><rect class="cls-1" x="294.41" y="100.94" width="7.69" height="17.3"/></g></g></g></svg>