<svg xmlns="http://www.w3.org/2000/svg" viewBox="0 0 352.72 167.11"><defs><style>.cls-1{fill-rule:evenodd;}.cls-2{fill:#a1d1f1;}</style></defs><title>FCUP</title><g id="Layer_2" data-name="Layer 2"><g id="Layer_1-2" data-name="Layer 1"><path d="M114.55,130.47a4.62,4.62,0,0,1-1.6,3.85,5.76,5.76,0,0,1-3.79,1.28,5.9,5.9,0,0,1-3.83-1.3,4.62,4.62,0,0,1-1.59-3.83v-9.09h1.72v8.56a7.88,7.88,0,0,0,.14,1.85,2.55,2.55,0,0,0,.65,1.08,4.08,4.08,0,0,0,5.78,0,2.55,2.55,0,0,0,.65-1.08,7.73,7.73,0,0,0,.15-1.85v-8.56h1.72v9.09Z"/><path d="M130.07,135.33h-2l-7-10.79c0-.06-.07-.12-.12-.2s-.1-.17-.15-.28a6.09,6.09,0,0,1-.38-.84v12h-1.72V121.38H121l6.85,10.53.11.17a.79.79,0,0,1,.08.16c0,.06.06.14.1.24s.08.23.15.39a.16.16,0,0,1,0,.09.66.66,0,0,0,.06.12v-11.7h1.71v14Z"/><polygon points="136.34 135.2 134.62 135.2 134.62 121.38 136.34 121.38 136.34 135.2 136.34 135.2"/><path d="M150.66,121.38l-5.36,14.18h-1.05l-5.45-14.18h1.85l4.08,10.78a2.78,2.78,0,0,1,.15.67,1.89,1.89,0,0,1,.13-.67l3.93-10.78Z"/><polygon points="161.11 135.2 153.15 135.2 153.15 121.38 160.92 121.38 160.92 122.82 154.87 122.82 154.87 127.43 159.87 127.43 159.87 128.87 154.87 128.87 154.87 133.75 161.11 133.75 161.11 135.2 161.11 135.2"/><path class="cls-1" d="M173.76,135.2h-2L168,129.27h-1.84v5.93h-1.72V121.38h4.21a9,9,0,0,1,1.1.05,4,4,0,0,1,.85.17,2.69,2.69,0,0,1,.69.31,4.49,4.49,0,0,1,.63.49,3.6,3.6,0,0,1,1.09,2.7,3.78,3.78,0,0,1-1.22,2.87,4.07,4.07,0,0,1-2.09,1.05l4.08,6.18Zm-2.61-10.08a2.3,2.3,0,0,0-.76-1.9,3.38,3.38,0,0,0-2-.4h-2.24v5h2.24c1.84,0,2.77-.9,2.77-2.71Z"/><path d="M184.42,122.3l-.79,1.42c-.31-.18-.58-.33-.82-.45a4.72,4.72,0,0,0-.63-.26,6.22,6.22,0,0,0-1.9-.29,3.12,3.12,0,0,0-1.92.53,1.72,1.72,0,0,0-.07,2.75,16.65,16.65,0,0,0,2.76,1.7,12.39,12.39,0,0,1,2.18,1.4,3.18,3.18,0,0,1,1.07,2.52,3.5,3.5,0,0,1-1.23,2.82,5,5,0,0,1-3.32,1,6.62,6.62,0,0,1-2.55-.46,9.33,9.33,0,0,1-1.78-1l.88-1.36a8.11,8.11,0,0,0,.89.57,4.66,4.66,0,0,0,.7.33,5.53,5.53,0,0,0,2,.36,3.07,3.07,0,0,0,1.94-.54,1.89,1.89,0,0,0,.68-1.55,2,2,0,0,0-.21-1,2.93,2.93,0,0,0-1.18-1.13c-.16-.1-.44-.25-.82-.45l-1.48-.79c-2-1.06-2.95-2.26-2.95-3.62a3.23,3.23,0,0,1,1.25-2.66,5.14,5.14,0,0,1,3.31-1,7.49,7.49,0,0,1,2.33.33,8.68,8.68,0,0,1,1.67.82Z"/><polygon points="189.55 135.2 187.83 135.2 187.83 121.38 189.55 121.38 189.55 135.2 189.55 135.2"/><path class="cls-1" d="M205.69,128.22a7.38,7.38,0,0,1-1.86,5,5.41,5.41,0,0,1-2.13,1.55,8.22,8.22,0,0,1-3,.46h-4.59V121.38h4.61a6.83,6.83,0,0,1,5,1.92,6.52,6.52,0,0,1,2,4.92Zm-1.8,0a5.3,5.3,0,0,0-5.42-5.38h-2.62v10.93h2.62a4.9,4.9,0,0,0,3.72-1.25,5.31,5.31,0,0,0,.69-.91,7.77,7.77,0,0,0,.54-1.08,6.86,6.86,0,0,0,.34-1.15,5.16,5.16,0,0,0,.13-1.16Z"/><path class="cls-1" d="M219,135.2h-1.84l-1.43-4.08h-5.59l-1.43,4.08h-1.84L212,121h1.85L219,135.2Zm-3.81-5.66L213,123.22l-2.27,6.32Z"/><path class="cls-1" d="M233,128.22a7.39,7.39,0,0,1-1.87,5,5.38,5.38,0,0,1-2.12,1.55,8.28,8.28,0,0,1-3,.46h-4.59V121.38h4.61a6.87,6.87,0,0,1,5,1.92,6.55,6.55,0,0,1,2,4.92Zm-1.81,0a5.17,5.17,0,0,0-1.55-3.83,5.25,5.25,0,0,0-3.87-1.55h-2.62v10.93h2.62a4.93,4.93,0,0,0,3.73-1.25,5.87,5.87,0,0,0,.69-.91,6.75,6.75,0,0,0,.53-1.08,6.91,6.91,0,0,0,.35-1.15,5.79,5.79,0,0,0,.12-1.16Z"/><polygon points="244.3 135.2 236.34 135.2 236.34 121.38 244.11 121.38 244.11 122.82 238.06 122.82 238.06 127.43 243.06 127.43 243.06 128.87 238.06 128.87 238.06 133.75 244.3 133.75 244.3 135.2 244.3 135.2"/><path class="cls-1" d="M264.42,128.22a7.38,7.38,0,0,1-1.86,5,5.41,5.41,0,0,1-2.13,1.55,8.22,8.22,0,0,1-3,.46h-4.59V121.38h4.61a6.83,6.83,0,0,1,5,1.92,6.52,6.52,0,0,1,2,4.92Zm-1.8,0a5.3,5.3,0,0,0-5.42-5.38h-2.62v10.93h2.62a4.9,4.9,0,0,0,3.72-1.25,5.35,5.35,0,0,0,.7-.91,9,9,0,0,0,.53-1.08,6.86,6.86,0,0,0,.34-1.15,5.16,5.16,0,0,0,.13-1.16Z"/><path class="cls-1" d="M280.39,128.29a7.1,7.1,0,0,1-2,5.15,7.11,7.11,0,0,1-9.95,0,7.69,7.69,0,0,1,0-10.28,7.09,7.09,0,0,1,9.95,0,7,7,0,0,1,2,5.13Zm-1.89,0a5.8,5.8,0,0,0-1.48-4,4.64,4.64,0,0,0-7.15,0,5.8,5.8,0,0,0-1.48,4,5.86,5.86,0,0,0,1.48,4,4.7,4.7,0,0,0,7.15,0,5.86,5.86,0,0,0,1.48-4Z"/><path class="cls-1" d="M297.73,125.46a5.23,5.23,0,0,1-.34,1.94,4,4,0,0,1-1,1.47,4.24,4.24,0,0,1-1.55.94,6.24,6.24,0,0,1-2,.32c-.18,0-.45,0-.81,0l-1.33-.13v5.24H289V121.38h4.33a4.56,4.56,0,0,1,3.37,1.08,4.08,4.08,0,0,1,1.07,3Zm-1.78.1a2.91,2.91,0,0,0-.77-2.15,3,3,0,0,0-2.14-.59h-2.37v5.7c.77.08,1.39.12,1.85.12a4.73,4.73,0,0,0,1.8-.27,2.44,2.44,0,0,0,1.19-1.06,3.39,3.39,0,0,0,.44-1.75Z"/><path class="cls-1" d="M313.24,128.29a7.06,7.06,0,0,1-2,5.15,6.54,6.54,0,0,1-5,2,6.61,6.61,0,0,1-5-2,7.69,7.69,0,0,1,0-10.28,6.62,6.62,0,0,1,5-2,6.54,6.54,0,0,1,5,2,6.93,6.93,0,0,1,2,5.13Zm-1.88,0a5.8,5.8,0,0,0-1.49-4,4.63,4.63,0,0,0-7.14,0,5.8,5.8,0,0,0-1.49,4,5.87,5.87,0,0,0,1.49,4,4.69,4.69,0,0,0,7.14,0,5.87,5.87,0,0,0,1.49-4Z"/><path class="cls-1" d="M325.91,135.2h-2l-3.82-5.93h-1.84v5.93h-1.72V121.38h4.21a9,9,0,0,1,1.1.05,4,4,0,0,1,.85.17,2.69,2.69,0,0,1,.69.31,4.49,4.49,0,0,1,.63.49,3.6,3.6,0,0,1,1.09,2.7,3.77,3.77,0,0,1-1.21,2.87,4.1,4.1,0,0,1-2.1,1.05l4.09,6.18Zm-2.62-10.08a2.27,2.27,0,0,0-.76-1.9,3.38,3.38,0,0,0-2-.4h-2.24v5h2.24c1.85,0,2.77-.9,2.77-2.71Z"/><polygon points="337.61 122.82 333 122.82 333 135.2 331.29 135.2 331.29 122.82 326.68 122.82 326.68 121.38 337.61 121.38 337.61 122.82 337.61 122.82"/><path class="cls-1" d="M352.72,128.29a7.1,7.1,0,0,1-2,5.15,7.11,7.11,0,0,1-9.95,0,7.69,7.69,0,0,1,0-10.28,7.09,7.09,0,0,1,9.95,0,7,7,0,0,1,2,5.13Zm-1.89,0a5.76,5.76,0,0,0-1.49-4,4.63,4.63,0,0,0-7.14,0,5.8,5.8,0,0,0-1.49,4,5.87,5.87,0,0,0,1.49,4,4.69,4.69,0,0,0,7.14,0,5.82,5.82,0,0,0,1.49-4Z"/><polygon points="112.26 98.86 106.34 98.86 106.34 102.42 111.19 102.42 111.19 104.64 106.34 104.64 106.34 110.45 103.7 110.45 103.7 96.62 112.26 96.62 112.26 98.86 112.26 98.86"/><path class="cls-1" d="M125.14,110.45h-2.76L121.29,107h-4.63l-1.13,3.42h-2.76l5-13.83h2.37l5,13.83Zm-4.56-5.66-1.61-5-1.6,5Z"/><path d="M137.4,97.69l-1,2.09a5.3,5.3,0,0,0-3.18-1,4.46,4.46,0,0,0-3.29,1.28,4.33,4.33,0,0,0-1.28,3.22,4.65,4.65,0,0,0,5,4.93,8.37,8.37,0,0,0,3-.65l.48,2.22a9,9,0,0,1-1.87.67c-.35.07-.7.12-1.07.17a10.39,10.39,0,0,1-1.15.06,7.17,7.17,0,0,1-5-1.72,7.09,7.09,0,0,1-2.33-5.53,6.94,6.94,0,0,1,2.12-5.17,7.11,7.11,0,0,1,5.21-1.93,7,7,0,0,1,4.34,1.32Z"/><path d="M151,105a7.93,7.93,0,0,1-.42,2.91,3.89,3.89,0,0,1-1.49,1.76,6.69,6.69,0,0,1-3.89,1,6.82,6.82,0,0,1-3.92-1A4,4,0,0,1,139.8,108a8.46,8.46,0,0,1-.39-2.93V96.62H142v8.57q0,3.07,3.27,3.08,3.08,0,3.08-3.08V96.62H151V105Z"/><polygon points="162.71 110.45 154.42 110.45 154.42 96.62 157.06 96.62 157.06 108.2 162.71 108.2 162.71 110.45 162.71 110.45"/><path class="cls-1" d="M177.26,103.49a6.88,6.88,0,0,1-1.91,4.92,7.28,7.28,0,0,1-5.59,2h-5.11V96.62h5.13a7.33,7.33,0,0,1,5.6,2,6.87,6.87,0,0,1,1.88,4.86Zm-2.85,0a4.39,4.39,0,0,0-1.59-3.75,5.59,5.59,0,0,0-3.31-.81h-2.09v9.17h2.09a5.13,5.13,0,0,0,3.62-1.19,4.44,4.44,0,0,0,1.28-3.42Z"/><path class="cls-1" d="M190.2,110.45h-2.76L186.35,107h-4.63l-1.13,3.42h-2.77l5-13.83h2.37l5,13.83Zm-4.56-5.66-1.62-5-1.59,5Z"/><path class="cls-1" d="M204.63,103.49a6.91,6.91,0,0,1-1.9,4.92,7.29,7.29,0,0,1-5.59,2H192V96.62h5.14a7.31,7.31,0,0,1,5.59,2,6.83,6.83,0,0,1,1.88,4.86Zm-2.85,0a4.39,4.39,0,0,0-1.59-3.75,5.59,5.59,0,0,0-3.31-.81h-2.09v9.17h2.09a5.14,5.14,0,0,0,3.63-1.19,4.47,4.47,0,0,0,1.27-3.42Z"/><polygon points="215.73 110.45 207.04 110.45 207.04 96.62 215.46 96.62 215.46 98.86 209.68 98.86 209.68 102.28 214.41 102.28 214.41 104.52 209.68 104.52 209.68 108.2 215.73 108.2 215.73 110.45 215.73 110.45"/><path class="cls-1" d="M236,103.49a6.92,6.92,0,0,1-1.91,4.92,7.28,7.28,0,0,1-5.59,2h-5.11V96.62h5.13a7.29,7.29,0,0,1,5.59,2,6.84,6.84,0,0,1,1.89,4.86Zm-2.85,0a4.39,4.39,0,0,0-1.59-3.75,5.59,5.59,0,0,0-3.31-.81h-2.1v9.17h2.1a5.13,5.13,0,0,0,3.62-1.19,4.47,4.47,0,0,0,1.28-3.42Z"/><polygon points="247.13 110.45 238.43 110.45 238.43 96.62 246.85 96.62 246.85 98.86 241.07 98.86 241.07 102.28 245.81 102.28 245.81 104.52 241.07 104.52 241.07 108.2 247.13 108.2 247.13 110.45 247.13 110.45"/><path d="M265.25,97.69l-1,2.09a5.3,5.3,0,0,0-3.18-1,4.46,4.46,0,0,0-3.29,1.28,4.33,4.33,0,0,0-1.28,3.22,4.86,4.86,0,0,0,1.36,3.59,4.92,4.92,0,0,0,3.63,1.34,8.32,8.32,0,0,0,3-.65l.48,2.22a8.75,8.75,0,0,1-1.86.67c-.35.07-.7.12-1.07.17a10.39,10.39,0,0,1-1.15.06,7.17,7.17,0,0,1-5-1.72,7.09,7.09,0,0,1-2.32-5.53,6.93,6.93,0,0,1,2.11-5.17,7.15,7.15,0,0,1,5.22-1.93,7,7,0,0,1,4.34,1.32Z"/><polygon points="270.19 110.45 267.55 110.45 267.55 96.62 270.19 96.62 270.19 110.45 270.19 110.45"/><path class="cls-1" d="M281.44,96h-1.82l-1.37-1.36L276.89,96h-1.82l2.35-2.45h1.67L281.44,96Zm1.15,14.48H273.9V96.62h8.42v2.24h-5.78v3.42h4.73v2.24h-4.73v3.68h6v2.25Z"/><path d="M297.16,110.57H294.4l-5.93-8.94a2.05,2.05,0,0,1-.12-.2c-.05-.09-.11-.21-.17-.35l-.09-.14-.08-.15a1.66,1.66,0,0,1-.19-.48v10.14h-2.51V96.62h3l5.8,9.09s.06.12.14.28.12.26.14.29l.12.35.13.25V96.62h2.49v13.95Z"/><path d="M311.39,97.69l-1,2.09a5.35,5.35,0,0,0-3.19-1,4.48,4.48,0,0,0-3.29,1.28,4.32,4.32,0,0,0-1.27,3.22,4.65,4.65,0,0,0,5,4.93,8.32,8.32,0,0,0,3-.65l.48,2.22a8.94,8.94,0,0,1-1.86.67c-.35.07-.71.12-1.07.17a10.65,10.65,0,0,1-1.15.06,7.17,7.17,0,0,1-5-1.72,7.09,7.09,0,0,1-2.33-5.53,6.94,6.94,0,0,1,2.12-5.17,7.11,7.11,0,0,1,5.22-1.93,7,7,0,0,1,4.33,1.32Z"/><polygon points="316.33 110.45 313.69 110.45 313.69 96.62 316.33 96.62 316.33 110.45 316.33 110.45"/><path class="cls-1" d="M330.58,110.45h-2.77L326.72,107H322.1L321,110.45H318.2l5-13.83h2.36l5,13.83ZM326,104.79l-1.61-5-1.59,5Z"/><path d="M341.22,97.54l-1.05,2.37a9.67,9.67,0,0,0-3.58-1,2.78,2.78,0,0,0-1.49.35,1.06,1.06,0,0,0-.54.93c0,.51.44,1,1.32,1.47a18.8,18.8,0,0,1,4.13,2.66,3.31,3.31,0,0,1,1,2.47,3.5,3.5,0,0,1-1.27,2.88,5.52,5.52,0,0,1-3.59,1l-.63,0-.61-.07a10.86,10.86,0,0,1-2.89-1l-.34-.17-.56-.25,1.11-2.43,1.18.61a7.47,7.47,0,0,0,.79.36,5.71,5.71,0,0,0,2,.39,2.55,2.55,0,0,0,1.48-.37,1.19,1.19,0,0,0,.53-1c0-.53-.4-1-1.21-1.49l-2.14-1.21a9.66,9.66,0,0,1-2.51-1.87,3,3,0,0,1-.69-2,3.53,3.53,0,0,1,.54-1.93,2.48,2.48,0,0,1,.43-.55,5.25,5.25,0,0,1,.6-.48,6,6,0,0,1,3.47-.92,8.8,8.8,0,0,1,3.5.68c.32.13.68.29,1.07.47Z"/><path class="cls-2" d="M76.92,129.41V111.15H74.64c-.36,1.47-1.46,5.52-1.46,5.52a44.2,44.2,0,0,0-4.65-2.61,25.84,25.84,0,0,0-11.65-2.91,27.08,27.08,0,0,0-14,3.79A26.5,26.5,0,0,0,32.8,125.52a31.21,31.21,0,0,0-3.63,15c0,10.27,6.61,20.52,14.83,24.25,7,3.13,14.6,3.18,22.73-.25,1.93-.81,2.84-1.49,2.66-2.24a.72.72,0,0,0-1.11-.53,20,20,0,0,1-2.23,1c-6.2,2.57-29.95,6.2-27.59-27.75a31.88,31.88,0,0,1,2.06-9.57,18.56,18.56,0,0,1,7-9,18.45,18.45,0,0,1,10-2.81,17.51,17.51,0,0,1,11.3,3.75q4.68,3.75,7.18,12Z"/><path class="cls-2" d="M14.89,105.58v29.08h5.9V116.9h6.49a5,5,0,0,1,5.17,4.67h.73V111h-1.5l-1,3.36H20.79V103.54c0-2.57.7-2.79,3.38-2.79H35.65V98.18H9.79v1.18c4.94.86,5.1.86,5.1,6.22Z"/><path class="cls-1" d="M103.88,13.45H96.49V12.26h21.27q9,0,14.37,3.44t5.34,11.15q0,7.33-5.64,11a24.07,24.07,0,0,1-13.32,3.63,15.87,15.87,0,0,1-7-1.27V63.69h7.62v1.19H96.49V63.69h7.39V13.45Zm7.61,25.23a11.19,11.19,0,0,0,2.5,1.08,10.52,10.52,0,0,0,3.25.49,13.22,13.22,0,0,0,8.43-3q3.73-3,3.73-9.76,0-7.28-3.32-10.67t-10-3.41h-4.56V38.68Z"/><path class="cls-1" d="M167.77,11.14q9.47,0,16.53,8.05a28.42,28.42,0,0,1,7,19.38,28.57,28.57,0,0,1-7,19.42q-7,8-16.6,8t-16.54-8a28.42,28.42,0,0,1-7-19.38,28.57,28.57,0,0,1,7-19.42q7-8,16.61-8Zm0,53.67a11.36,11.36,0,0,0,9.4-4.21,23.1,23.1,0,0,0,4.52-10,61.32,61.32,0,0,0,1.15-12,64.92,64.92,0,0,0-1.08-12.15,22.25,22.25,0,0,0-4.44-9.88q-3.36-4.2-9.55-4.21a11.38,11.38,0,0,0-9.41,4.21,23,23,0,0,0-4.51,10,60.56,60.56,0,0,0-1.16,12,64.92,64.92,0,0,0,1.08,12.15,22.25,22.25,0,0,0,4.44,9.88q3.36,4.2,9.56,4.21Z"/><path class="cls-1" d="M204.12,13.45h-7.46V12.26h22.91q8,0,13,2.77t5,10.48q0,6.06-4.93,8.76a30.64,30.64,0,0,1-11.05,3.44q7.1.75,10.27,3.17t4,9.45l1,9.1c.25,1.89.74,3.15,1.46,3.77a3.62,3.62,0,0,0,2.42.93,8.56,8.56,0,0,0,3.06-.74l.45,1a15.45,15.45,0,0,1-2.65.71,20.3,20.3,0,0,1-3.47.26q-6.2,0-8-2.87t-2.72-10.57l-.52-4.48a11.57,11.57,0,0,0-2.5-6.64q-2.05-2.31-7.8-2.31h-4.85V63.69h7.61v1.19H196.66V63.69h7.46V13.45Zm7.62,23.81h3.73q6.94,0,10.45-2.73t3.5-9a13.45,13.45,0,0,0-2.68-8.72q-2.69-3.34-9.93-3.34h-5.07V37.26Z"/><path d="M265.79,13.45h-1.57Q254.08,13.45,251,16T248,27.71h-1.19V12.26h45.68V27.71h-1.2q0-9-3.06-11.64t-13.13-2.62H273.4V63.69h7.69v1.19h-23V63.69h7.69V13.45Z"/><path class="cls-1" d="M321.49,11.14q9.48,0,16.53,8.05a28.42,28.42,0,0,1,7.05,19.38,28.57,28.57,0,0,1-7,19.42q-7,8-16.6,8T305,58a28.42,28.42,0,0,1-7.05-19.38,28.57,28.57,0,0,1,7-19.42q7-8,16.61-8Zm0,53.67a11.36,11.36,0,0,0,9.4-4.21,23.1,23.1,0,0,0,4.52-10,61.32,61.32,0,0,0,1.15-12,64.92,64.92,0,0,0-1.08-12.15A22.25,22.25,0,0,0,331,16.54q-3.36-4.2-9.55-4.21a11.38,11.38,0,0,0-9.41,4.21,23,23,0,0,0-4.51,10,61.32,61.32,0,0,0-1.16,12,64.92,64.92,0,0,0,1.08,12.15,22.25,22.25,0,0,0,4.44,9.88q3.36,4.2,9.56,4.21Z"/><path class="cls-1" d="M71.94,55.08a5.24,5.24,0,1,1-3.76,1.54,5.11,5.11,0,0,1,3.76-1.54ZM12.35,12.41H35.86v1.34h-6V46.54q0,8.2,2.72,12.53t10.34,4.32a12.81,12.81,0,0,0,9.55-3.88q3.81-3.87,3.81-11.18V20c0-2.23-.36-3.84-1.08-4.81s-2-1.45-3.92-1.45H49.07V12.41H63.85v1.34H61.91A3.2,3.2,0,0,0,59,15.28,9.36,9.36,0,0,0,58,20V47.89q0,8.49-4.89,13.34T38.33,66.08q-9.18,0-14.67-5t-5.49-13.6V13.75H12.35V12.41ZM0,0H86.72V77.94H0V0Z"/></g></g></svg>