<svg xmlns="http://www.w3.org/2000/svg" xmlns:xlink="http://www.w3.org/1999/xlink" viewBox="0 0 429.69 133.17"><defs><style>.cls-1{fill:none;}.cls-2{fill:#a63521;}.cls-3{clip-path:url(#clip-path);}.cls-4{fill:#231f20;}</style><clipPath id="clip-path"><rect class="cls-1" width="429.69" height="133.17"/></clipPath></defs><title>FEUP</title><g id="Layer_2" data-name="Layer 2"><g id="Layer_1-2" data-name="Layer 1"><polygon class="cls-2" points="16.41 90.67 3.63 90.67 3.63 100.67 14.2 100.67 14.2 103.76 3.63 103.76 3.63 116.81 0 116.81 0 87.62 16.41 87.62 16.41 90.67"/><polygon class="cls-2" points="36.2 116.81 19.39 116.81 19.39 87.62 35.8 87.62 35.8 90.67 23.02 90.67 23.02 100.4 33.59 100.4 33.59 103.45 23.02 103.45 23.02 113.76 36.2 113.76 36.2 116.81"/><g class="cls-3"><path class="cls-2" d="M61.54,106.82q0,5.43-3.37,8.13a12.14,12.14,0,0,1-8,2.7,12.54,12.54,0,0,1-8.1-2.74c-2.24-1.8-3.35-4.5-3.35-8.09V87.62h3.62v18.09a16.88,16.88,0,0,0,.31,3.89A5.51,5.51,0,0,0,44,111.9a7.8,7.8,0,0,0,6.11,2.52,7.77,7.77,0,0,0,6.1-2.52,5.41,5.41,0,0,0,1.37-2.3,16.32,16.32,0,0,0,.31-3.89V87.62h3.63Z"/><path class="cls-2" d="M85.27,96.24a11.17,11.17,0,0,1-.73,4.1,8.64,8.64,0,0,1-2.08,3.11,9.07,9.07,0,0,1-3.28,2,12.62,12.62,0,0,1-4.31.68c-.38,0-1,0-1.7-.08s-1.69-.15-2.81-.27v11.06H66.74V87.62h9.15c3.25,0,5.62.76,7.12,2.3a8.61,8.61,0,0,1,2.26,6.32m-3.76.22a6.16,6.16,0,0,0-1.64-4.55c-.82-.83-2.32-1.24-4.51-1.24h-5v12a37.07,37.07,0,0,0,3.9.27,10,10,0,0,0,3.8-.58,5.23,5.23,0,0,0,2.52-2.23,7.13,7.13,0,0,0,.93-3.7"/><path class="cls-4" d="M111.93,127.07a5.48,5.48,0,0,1-1.9,4.57,6.78,6.78,0,0,1-4.5,1.53,7.05,7.05,0,0,1-4.56-1.55,5.49,5.49,0,0,1-1.89-4.55V116.26h2v10.18a9,9,0,0,0,.18,2.19,3,3,0,0,0,.77,1.3,4.86,4.86,0,0,0,6.87,0,3.14,3.14,0,0,0,.77-1.3,9,9,0,0,0,.18-2.19V116.26h2Z"/><path class="cls-4" d="M130.39,132.84H128L119.73,120a1.62,1.62,0,0,0-.14-.24c0-.09-.12-.2-.18-.33a7.47,7.47,0,0,1-.45-1v14.24h-2V116.26h2.66l8.14,12.52a1.4,1.4,0,0,0,.13.2l.1.19c0,.07.07.17.11.29s.1.27.19.47a.29.29,0,0,1,0,.1.64.64,0,0,0,.06.15V116.26h2Z"/></g><rect class="cls-4" x="135.79" y="116.26" width="2.04" height="16.43"/><g class="cls-3"><path class="cls-4" d="M154.86,116.26l-6.38,16.86h-1.24l-6.48-16.86H143l4.86,12.82a3.66,3.66,0,0,1,.18.8,2.17,2.17,0,0,1,.15-.8l4.68-12.82Z"/></g><polygon class="cls-4" points="167.28 132.69 157.82 132.69 157.82 116.25 167.05 116.25 167.05 117.98 159.86 117.98 159.86 123.46 165.81 123.46 165.81 125.17 159.86 125.17 159.86 130.97 167.28 130.97 167.28 132.69"/><g class="cls-3"><path class="cls-4" d="M182.32,132.69H180l-4.53-7h-2.19v7h-2V116.26h5a12.56,12.56,0,0,1,1.31.06,5.64,5.64,0,0,1,1,.2,3.06,3.06,0,0,1,.82.38,5.08,5.08,0,0,1,.75.58,4.29,4.29,0,0,1,1.29,3.21A4.48,4.48,0,0,1,180,124.1a4.87,4.87,0,0,1-2.49,1.25Zm-3.11-12a2.75,2.75,0,0,0-.89-2.26,4.09,4.09,0,0,0-2.4-.48h-2.66v6h2.66q3.29,0,3.29-3.22"/><path class="cls-4" d="M195,117.35l-.94,1.69c-.37-.21-.69-.39-1-.53a5.16,5.16,0,0,0-.74-.31,7.68,7.68,0,0,0-2.27-.35,3.8,3.8,0,0,0-2.28.63,2,2,0,0,0-.86,1.68,2,2,0,0,0,.78,1.6,20.53,20.53,0,0,0,3.29,2,13.72,13.72,0,0,1,2.59,1.67,3.75,3.75,0,0,1,1.27,3,4.13,4.13,0,0,1-1.47,3.35,5.9,5.9,0,0,1-3.94,1.24,7.88,7.88,0,0,1-3-.56,10.91,10.91,0,0,1-2.12-1.22l1.05-1.61a11.87,11.87,0,0,0,1.06.67,5.13,5.13,0,0,0,.84.4,6.63,6.63,0,0,0,2.36.42,3.56,3.56,0,0,0,2.3-.65,2.21,2.21,0,0,0,.81-1.84,2.25,2.25,0,0,0-.25-1.16,3.48,3.48,0,0,0-1.39-1.35c-.2-.12-.52-.3-1-.54l-1.76-.93c-2.34-1.27-3.51-2.7-3.51-4.31a3.87,3.87,0,0,1,1.49-3.17,6.14,6.14,0,0,1,3.93-1.19,8.94,8.94,0,0,1,2.77.4,11,11,0,0,1,2,1"/></g><rect class="cls-4" x="199.04" y="116.26" width="2.04" height="16.43"/><g class="cls-3"><path class="cls-4" d="M220.27,124.4a8.8,8.8,0,0,1-2.21,5.9,6.31,6.31,0,0,1-2.53,1.84,9.77,9.77,0,0,1-3.55.55h-5.45V116.26H212a8.14,8.14,0,0,1,5.93,2.29,7.81,7.81,0,0,1,2.33,5.85m-2.14,0a6.18,6.18,0,0,0-1.84-4.55,6.25,6.25,0,0,0-4.61-1.85h-3.11v13h3.11a5.87,5.87,0,0,0,4.44-1.49,6.61,6.61,0,0,0,.82-1.09,8.34,8.34,0,0,0,.63-1.27,8.63,8.63,0,0,0,.42-1.37,7.34,7.34,0,0,0,.14-1.38"/></g><path class="cls-4" d="M236.12,132.69h-2.19l-1.7-4.85h-6.65l-1.69,4.85H221.7l6.12-16.91H230ZM231.58,126l-2.66-7.52L226.23,126Z"/><g class="cls-3"><path class="cls-4" d="M252.77,124.4a8.76,8.76,0,0,1-2.22,5.9,6.35,6.35,0,0,1-2.52,1.84,9.81,9.81,0,0,1-3.55.55H239V116.26h5.48a8.12,8.12,0,0,1,5.93,2.29,7.78,7.78,0,0,1,2.34,5.85m-2.14,0a6.3,6.3,0,0,0-6.45-6.4h-3.12v13h3.12a5.84,5.84,0,0,0,4.43-1.49,6.61,6.61,0,0,0,.82-1.09,7.51,7.51,0,0,0,.63-1.27,8.63,8.63,0,0,0,.42-1.37,6.62,6.62,0,0,0,.15-1.38"/></g><polygon class="cls-4" points="266.17 132.69 256.71 132.69 256.71 116.25 265.95 116.25 265.95 117.98 258.75 117.98 258.75 123.46 264.7 123.46 264.7 125.17 258.75 125.17 258.75 130.97 266.17 130.97 266.17 132.69"/><g class="cls-3"><path class="cls-4" d="M290.09,124.4a8.76,8.76,0,0,1-2.22,5.9,6.22,6.22,0,0,1-2.52,1.84,9.83,9.83,0,0,1-3.56.55h-5.45V116.26h5.48a8.11,8.11,0,0,1,5.93,2.29,7.78,7.78,0,0,1,2.34,5.85m-2.14,0a6.3,6.3,0,0,0-6.45-6.4h-3.12v13h3.12a5.83,5.83,0,0,0,4.43-1.49,6.61,6.61,0,0,0,.82-1.09,6.83,6.83,0,0,0,.63-1.27,8.63,8.63,0,0,0,.42-1.37,6.62,6.62,0,0,0,.15-1.38"/><path class="cls-4" d="M309.07,124.47a8.46,8.46,0,0,1-2.34,6.13,7.82,7.82,0,0,1-5.9,2.41,7.91,7.91,0,0,1-5.93-2.41,9.16,9.16,0,0,1,0-12.23,7.91,7.91,0,0,1,5.93-2.41,7.82,7.82,0,0,1,5.9,2.41,8.32,8.32,0,0,1,2.34,6.1m-2.24,0a6.9,6.9,0,0,0-1.77-4.73,5.53,5.53,0,0,0-8.5,0,6.94,6.94,0,0,0-1.76,4.73,7,7,0,0,0,1.76,4.79,5.59,5.59,0,0,0,8.5,0,7,7,0,0,0,1.77-4.79"/><path class="cls-4" d="M329.69,121.11a6.09,6.09,0,0,1-.42,2.31,4.81,4.81,0,0,1-1.17,1.75,5,5,0,0,1-1.83,1.11,7.2,7.2,0,0,1-2.43.39c-.22,0-.54,0-1,0l-1.58-.15v6.22h-2.05V116.26h5.16a5.39,5.39,0,0,1,4,1.29,4.85,4.85,0,0,1,1.28,3.56m-2.12.13a3.5,3.5,0,0,0-.92-2.57,3.61,3.61,0,0,0-2.54-.69H321.3v6.77a20.88,20.88,0,0,0,2.19.15,5.51,5.51,0,0,0,2.14-.33,2.92,2.92,0,0,0,1.42-1.25,4.11,4.11,0,0,0,.52-2.08"/><path class="cls-4" d="M348.12,124.47a8.46,8.46,0,0,1-2.34,6.13,7.81,7.81,0,0,1-5.9,2.41A7.92,7.92,0,0,1,334,130.6a9.19,9.19,0,0,1,0-12.23,7.92,7.92,0,0,1,5.93-2.41,7.81,7.81,0,0,1,5.9,2.41,8.32,8.32,0,0,1,2.34,6.1m-2.24,0a6.85,6.85,0,0,0-1.77-4.73,5.52,5.52,0,0,0-8.49,0,6.9,6.9,0,0,0-1.77,4.73,7,7,0,0,0,1.77,4.79,5.5,5.5,0,0,0,4.26,2,5.44,5.44,0,0,0,4.23-2,6.93,6.93,0,0,0,1.77-4.79"/><path class="cls-4" d="M363.18,132.69h-2.34l-4.54-7h-2.18v7h-2.05V116.26h5a12.3,12.3,0,0,1,1.31.06,5.47,5.47,0,0,1,1,.2,2.8,2.8,0,0,1,.82.38,4.21,4.21,0,0,1,.75.58,4.27,4.27,0,0,1,1.3,3.21,4.48,4.48,0,0,1-1.45,3.41,4.92,4.92,0,0,1-2.48,1.25Zm-3.12-12a2.72,2.72,0,0,0-.89-2.26,4,4,0,0,0-2.39-.48h-2.66v6h2.66q3.29,0,3.28-3.22"/></g><polygon class="cls-4" points="377.09 117.98 371.62 117.98 371.62 132.69 369.57 132.69 369.57 117.98 364.09 117.98 364.09 116.26 377.09 116.26 377.09 117.98"/><g class="cls-3"><path class="cls-4" d="M395.05,124.47a8.5,8.5,0,0,1-2.34,6.13,7.81,7.81,0,0,1-5.9,2.41,7.89,7.89,0,0,1-5.93-2.41,9.16,9.16,0,0,1,0-12.23,7.89,7.89,0,0,1,5.93-2.41,7.81,7.81,0,0,1,5.9,2.41,8.36,8.36,0,0,1,2.34,6.1m-2.24,0a6.9,6.9,0,0,0-1.77-4.73,5.52,5.52,0,0,0-8.49,0,6.9,6.9,0,0,0-1.77,4.73,7,7,0,0,0,1.77,4.79,5.58,5.58,0,0,0,8.49,0,7,7,0,0,0,1.77-4.79"/></g><polygon class="cls-4" points="109.22 90.29 102.17 90.29 102.17 94.52 107.94 94.52 107.94 97.16 102.17 97.16 102.17 104.06 99.03 104.06 99.03 87.62 109.22 87.62 109.22 90.29"/><path class="cls-4" d="M124.53,104.06h-3.29l-1.3-4.07h-5.5l-1.34,4.07h-3.29l6-16.44h2.82Zm-5.43-6.73-1.92-6-1.9,6Z"/><g class="cls-3"><path class="cls-4" d="M139.1,88.89l-1.21,2.49a6.32,6.32,0,0,0-3.78-1.15,5.29,5.29,0,0,0-3.91,1.53,5.14,5.14,0,0,0-1.52,3.83,5.76,5.76,0,0,0,1.62,4.26,5.83,5.83,0,0,0,4.31,1.59,9.94,9.94,0,0,0,3.61-.77l.57,2.64a10.37,10.37,0,0,1-2.21.79c-.42.09-.84.15-1.27.2a10.1,10.1,0,0,1-1.37.08,8.22,8.22,0,0,1-8.72-8.62,8.27,8.27,0,0,1,2.52-6.15,9.41,9.41,0,0,1,11.36-.72"/><path class="cls-4" d="M155.27,97.63a9.31,9.31,0,0,1-.5,3.46,4.7,4.7,0,0,1-1.77,2.1,8,8,0,0,1-4.63,1.19,8.13,8.13,0,0,1-4.65-1.19,4.79,4.79,0,0,1-1.77-2.07,10,10,0,0,1-.47-3.49v-10h3.11V97.81c0,2.43,1.3,3.66,3.89,3.66,2.43,0,3.65-1.23,3.65-3.66V87.62h3.14Z"/></g><polygon class="cls-4" points="169.19 104.06 159.32 104.06 159.32 87.62 162.46 87.62 162.46 101.39 169.19 101.39 169.19 104.06"/><g class="cls-3"><path class="cls-4" d="M186.48,95.79a8.25,8.25,0,0,1-2.27,5.85q-2.27,2.42-6.65,2.42h-6.07V87.62h6.1c2.94,0,5.15.8,6.65,2.39a8.17,8.17,0,0,1,2.24,5.78m-3.39,0a5.23,5.23,0,0,0-1.89-4.46,6.66,6.66,0,0,0-3.93-1h-2.5v10.9h2.5a6,6,0,0,0,4.3-1.42,5.24,5.24,0,0,0,1.52-4.06"/></g><path class="cls-4" d="M201.86,104.06h-3.29L197.28,100h-5.51l-1.34,4.07h-3.29l6-16.44h2.81Zm-5.43-6.73-1.91-6-1.9,6Z"/><g class="cls-3"><path class="cls-4" d="M219,95.79a8.25,8.25,0,0,1-2.27,5.85q-2.26,2.42-6.65,2.42H204V87.62h6.1c2.94,0,5.15.8,6.65,2.39A8.17,8.17,0,0,1,219,95.79m-3.39,0a5.23,5.23,0,0,0-1.89-4.46,6.67,6.67,0,0,0-3.94-1h-2.49v10.9h2.49a6,6,0,0,0,4.31-1.42,5.24,5.24,0,0,0,1.52-4.06"/></g><polygon class="cls-4" points="232.21 104.06 221.88 104.06 221.88 87.62 231.89 87.62 231.89 90.28 225.01 90.28 225.01 94.34 230.64 94.34 230.64 97.01 225.01 97.01 225.01 101.39 232.21 101.39 232.21 104.06"/><g class="cls-3"><path class="cls-4" d="M256.34,95.79a8.2,8.2,0,0,1-2.27,5.85q-2.26,2.42-6.65,2.42h-6.08V87.62h6.11c2.94,0,5.15.8,6.65,2.39a8.17,8.17,0,0,1,2.24,5.78m-3.39,0a5.23,5.23,0,0,0-1.89-4.46,6.67,6.67,0,0,0-3.94-1h-2.48v10.9h2.48a6,6,0,0,0,4.31-1.42A5.24,5.24,0,0,0,253,95.81"/></g><polygon class="cls-4" points="269.53 104.06 259.2 104.06 259.2 87.62 269.21 87.62 269.21 90.28 262.33 90.28 262.33 94.34 267.96 94.34 267.96 97.01 262.33 97.01 262.33 101.39 269.53 101.39 269.53 104.06"/><polygon class="cls-4" points="289.15 104.06 278.82 104.06 278.82 87.62 288.83 87.62 288.83 90.28 281.95 90.28 281.95 94.34 287.59 94.34 287.59 97.01 281.95 97.01 281.95 101.39 289.15 101.39 289.15 104.06"/><g class="cls-3"><path class="cls-4" d="M306.47,104.21h-3.28l-7.05-10.64a2.64,2.64,0,0,1-.14-.24c-.06-.1-.13-.24-.21-.4a.61.61,0,0,0-.1-.18l-.1-.17a3.18,3.18,0,0,1-.23-.58v12.06h-3V87.62H296l6.9,10.81a3.07,3.07,0,0,0,.16.34c.09.19.14.3.16.33l.15.42.15.3V87.62h3Z"/><path class="cls-4" d="M324.7,103.44l-.74.17-.92.22a17.75,17.75,0,0,1-4.13.55,9.51,9.51,0,0,1-6.68-2.37,8.68,8.68,0,0,1,.16-12.47,9.06,9.06,0,0,1,6.41-2.19,14.72,14.72,0,0,1,3.45.37c.32.08.69.2,1.1.34a14.09,14.09,0,0,1,1.33.53l-.74,2.62-.59-.22-.76-.26a10.53,10.53,0,0,0-3.39-.59,6.62,6.62,0,0,0-4.51,1.54,5.06,5.06,0,0,0-1.74,4,5.54,5.54,0,0,0,1.87,4.23,6.66,6.66,0,0,0,4.61,1.69,8,8,0,0,0,2.14-.35V96.71h3.13Z"/></g><polygon class="cls-4" points="339.12 104.06 328.78 104.06 328.78 87.62 338.79 87.62 338.79 90.28 331.92 90.28 331.92 94.34 337.55 94.34 337.55 97.01 331.92 97.01 331.92 101.39 339.12 101.39 339.12 104.06"/><g class="cls-3"><path class="cls-4" d="M356.44,104.21h-3.29l-7-10.64a2.64,2.64,0,0,1-.14-.24c0-.1-.12-.24-.21-.4a.61.61,0,0,0-.1-.18l-.1-.17a2.56,2.56,0,0,1-.22-.58v12.06h-3V87.62H346l6.9,10.81s.07.15.16.34l.16.33.15.42.15.3V87.62h3Z"/></g><polygon class="cls-4" points="375.81 104.06 372.67 104.06 372.67 97.01 364.24 97.01 364.24 104.06 361.1 104.06 361.1 87.62 364.24 87.62 364.24 94.19 372.67 94.19 372.67 87.62 375.81 87.62 375.81 104.06"/><path class="cls-4" d="M392.81,104.06h-3.29l-1.3-4.07h-5.49l-1.35,4.07H378.1L384,87.62h2.82Zm-5.43-6.73-1.92-6-1.89,6Z"/><g class="cls-3"><path class="cls-4" d="M407,104.06h-3.43l-3.76-6.58h-1.57v6.58h-3.14V87.62h5.48c.6,0,1.12,0,1.57.06a7,7,0,0,1,1.18.2,3.63,3.63,0,0,1,.92.38,4.21,4.21,0,0,1,.79.58,4.64,4.64,0,0,1,1.34,3.56,4.91,4.91,0,0,1-.89,3.09A4.67,4.67,0,0,1,402.94,97Zm-3.86-11.58a2,2,0,0,0-.64-1.7,3.74,3.74,0,0,0-2.21-.49h-2.05v4.53h2.05q2.85,0,2.85-2.34"/></g><rect class="cls-4" x="409.62" y="87.62" width="3.14" height="16.44"/><path class="cls-4" d="M429.69,104.06H426.4L425.11,100H419.6l-1.34,4.07H415l5.95-16.44h2.82Zm-5.43-6.73-1.92-6-1.89,6Z"/><g class="cls-3"><path class="cls-4" d="M99,13.8h-7V12.67h20q8.51,0,13.53,3.24t5,10.5q0,6.9-5.3,10.32a22.65,22.65,0,0,1-12.54,3.42,15,15,0,0,1-6.61-1.2V61.09h7.17v1.12H92.09V61.09h7Zm7.17,23.74a10.58,10.58,0,0,0,2.36,1,10.09,10.09,0,0,0,3.05.46,12.43,12.43,0,0,0,7.94-2.79c2.35-1.85,3.51-4.92,3.51-9.2q0-6.83-3.12-10t-9.45-3.2h-4.29Z"/><path class="cls-4" d="M159.19,11.62q8.92,0,15.57,7.57a26.75,26.75,0,0,1,6.64,18.25,26.9,26.9,0,0,1-6.57,18.29q-6.57,7.53-15.64,7.54-8.91,0-15.56-7.58A26.72,26.72,0,0,1,137,37.44a26.89,26.89,0,0,1,6.57-18.28q6.57-7.54,15.63-7.54m0,50.53a10.7,10.7,0,0,0,8.86-4,21.65,21.65,0,0,0,4.25-9.4,58.16,58.16,0,0,0,1.09-11.34,61,61,0,0,0-1-11.44,20.93,20.93,0,0,0-4.18-9.29q-3.16-4-9-4a10.7,10.7,0,0,0-8.85,4,21.54,21.54,0,0,0-4.25,9.4A57.23,57.23,0,0,0,145,37.44a60.78,60.78,0,0,0,1,11.44,20.92,20.92,0,0,0,4.18,9.3q3.17,4,9,4"/><path class="cls-4" d="M193.43,13.8h-7V12.67H208q7.53,0,12.2,2.61t4.67,9.87q0,5.7-4.64,8.24a28.75,28.75,0,0,1-10.4,3.25q6.67.69,9.66,3t3.77,8.89l1,8.58c.23,1.78.69,3,1.36,3.54a3.42,3.42,0,0,0,2.29.89,8.17,8.17,0,0,0,2.88-.71l.42.91a13.86,13.86,0,0,1-2.49.67,18.13,18.13,0,0,1-3.27.25q-5.84,0-7.48-2.71T215.35,50l-.49-4.22a10.87,10.87,0,0,0-2.35-6.25q-1.94-2.18-7.35-2.18h-4.57V61.09h7.17v1.12H186.4V61.09h7Zm7.16,22.41h3.52c4.36,0,7.63-.85,9.84-2.57s3.3-4.55,3.3-8.49a12.69,12.69,0,0,0-2.53-8.22q-2.53-3.12-9.35-3.13h-4.78Z"/><path class="cls-4" d="M251.49,13.8H250q-9.56,0-12.44,2.42c-1.91,1.62-2.88,5.29-2.88,11h-1.12V12.67h43V27.22h-1.13q0-8.5-2.88-11T260.2,13.8h-1.54V61.09h7.24v1.13H244.25V61.09h7.24Z"/><path class="cls-4" d="M303.93,11.62q8.93,0,15.57,7.57a26.74,26.74,0,0,1,6.63,18.25,26.89,26.89,0,0,1-6.56,18.29q-6.57,7.53-15.64,7.54t-15.57-7.58a26.76,26.76,0,0,1-6.63-18.25,26.93,26.93,0,0,1,6.56-18.28q6.58-7.54,15.64-7.54m0,50.53a10.67,10.67,0,0,0,8.85-4,21.67,21.67,0,0,0,4.26-9.4,58.17,58.17,0,0,0,1.08-11.34,61,61,0,0,0-1-11.44,20.94,20.94,0,0,0-4.19-9.29q-3.15-4-9-4a10.67,10.67,0,0,0-8.85,4,21.67,21.67,0,0,0-4.26,9.4,58,58,0,0,0-1.08,11.33,60,60,0,0,0,1,11.44,20.81,20.81,0,0,0,4.18,9.3q3.17,4,9,4"/><path class="cls-4" d="M71.78,61.3a5.06,5.06,0,1,1,1.44-3.53,4.81,4.81,0,0,1-1.44,3.53M60.63,13.87H58.8A3,3,0,0,0,56,15.31a8.69,8.69,0,0,0-.88,4.45V46q0,8-4.61,12.56T36.59,63.13q-8.64,0-13.8-4.67t-5.17-12.8V13.87H12.14V12.61H34.28v1.26h-5.7V44.74q0,7.73,2.57,11.79c1.71,2.72,5,4.5,9.73,4.07,3.76-.34,5.91-1.21,8.3-3.65S52.77,51,52.77,46.43V19.76a7.71,7.71,0,0,0-1-4.52c-.68-.91-1.22-1.37-3-1.37h-2V12.61H60.63ZM0,74.92H85.17V0H0Z"/></g></g></g></svg>