<svg xmlns="http://www.w3.org/2000/svg" viewBox="0 0 400.92 87.8"><defs><style>.cls-1,.cls-4{fill:#fff;}.cls-2,.cls-3{fill:#231f20;}.cls-3,.cls-4{fill-rule:evenodd;}</style></defs><title>UPorto</title><g id="Layer_2" data-name="Layer 2"><g id="Layer_1-2" data-name="Layer 1"><rect class="cls-1" width="400.92" height="87.8"/><path class="cls-2" d="M400.92,0V87.8H0V0Zm-2.19,2.19H2.19V85.62H398.73Z"/><path class="cls-3" d="M117.21,15.76h-8.28V14.42h23.84q10.13,0,16.1,3.86t6,12.49q0,8.22-6.31,12.29a27,27,0,0,1-14.93,4.06,17.86,17.86,0,0,1-7.87-1.42V72h8.54v1.34H108.93V72h8.28ZM125.74,44a12.48,12.48,0,0,0,2.81,1.22,12,12,0,0,0,3.64.54,14.82,14.82,0,0,0,9.45-3.31q4.19-3.31,4.18-10.94,0-8.14-3.72-12t-11.25-3.82h-5.11Z"/><path class="cls-3" d="M188.81,13.17q10.62,0,18.53,9a31.8,31.8,0,0,1,7.9,21.71q0,12.78-7.82,21.76t-18.61,9q-10.62,0-18.53-9a31.88,31.88,0,0,1-7.9-21.72,32,32,0,0,1,7.82-21.75Q178,13.17,188.81,13.17Zm0,60.13q6.78,0,10.54-4.72a25.73,25.73,0,0,0,5.06-11.19,68.14,68.14,0,0,0,1.3-13.49,73.24,73.24,0,0,0-1.21-13.61,25,25,0,0,0-5-11.07q-3.77-4.71-10.71-4.71-6.76,0-10.54,4.71a25.83,25.83,0,0,0-5.06,11.2,68.8,68.8,0,0,0-1.29,13.48,72.32,72.32,0,0,0,1.21,13.61,25,25,0,0,0,5,11.07Q181.88,73.31,188.81,73.3Z"/><path class="cls-3" d="M229.56,15.76H221.2V14.42h25.68q8.94,0,14.51,3.11T267,29.27q0,6.79-5.52,9.81a34.09,34.09,0,0,1-12.38,3.86q7.95.84,11.5,3.55T265,57.07l1.17,10.21c.28,2.12.82,3.52,1.63,4.22a4,4,0,0,0,2.72,1,9.74,9.74,0,0,0,3.43-.84l.5,1.09a16.87,16.87,0,0,1-3,.79,21.9,21.9,0,0,1-3.89.29q-6.94,0-8.91-3.22t-3-11.83l-.59-5a13,13,0,0,0-2.8-7.44c-1.53-1.73-4.45-2.59-8.74-2.59h-5.44V72h8.53v1.34H221.2V72h8.36Zm8.53,26.68h4.18q7.78,0,11.72-3.06t3.93-10.11a15.15,15.15,0,0,0-3-9.78q-3-3.73-11.13-3.73h-5.69Z"/><path class="cls-3" d="M298.67,15.76h-1.75q-11.39,0-14.81,2.89t-3.43,13.08h-1.34V14.42h51.19V31.73H327.2q0-10.11-3.43-13t-14.72-2.93h-1.84V72h8.61v1.34H290.06V72h8.61Z"/><path class="cls-3" d="M361.09,13.17q10.64,0,18.53,9a31.81,31.81,0,0,1,7.91,21.71,32,32,0,0,1-7.82,21.76q-7.83,9-18.62,9-10.62,0-18.52-9a31.84,31.84,0,0,1-7.91-21.72,32,32,0,0,1,7.82-21.75Q350.31,13.17,361.09,13.17Zm0,60.13q6.78,0,10.54-4.72a25.73,25.73,0,0,0,5.06-11.19A68.14,68.14,0,0,0,378,43.9a72.39,72.39,0,0,0-1.21-13.61,25,25,0,0,0-5-11.07q-3.76-4.71-10.71-4.71-6.76,0-10.54,4.71a25.83,25.83,0,0,0-5.06,11.2A68.8,68.8,0,0,0,344.2,43.9a72.32,72.32,0,0,0,1.21,13.61,25,25,0,0,0,5,11.07Q354.16,73.31,361.09,73.3Z"/><rect class="cls-2" x="1.09" y="1.09" width="99.6" height="85.62"/><path class="cls-4" d="M13.77,14.34H40.12v1.51H33.34V52.59q0,9.18,3.06,14c2,3.23,5.92,5.36,11.58,4.84,4.48-.41,7-1.45,9.88-4.34s4.27-7.07,4.27-12.53V22.86q0-3.75-1.21-5.39c-.81-1.08-1.45-1.62-3.57-1.62H54.93V14.34H71.49v1.51H69.31A3.59,3.59,0,0,0,66,17.56,10.41,10.41,0,0,0,65,22.86V54.1Q65,63.61,59.48,69t-16.6,5.43q-10.29,0-16.44-5.55T20.3,53.68V15.85H13.77Z"/><path class="cls-4" d="M80.55,62.16a5.87,5.87,0,1,1-4.21,1.72A5.72,5.72,0,0,1,80.55,62.16Z"/></g></g></svg>