<svg xmlns="http://www.w3.org/2000/svg" viewBox="0 0 258.56 131.07"><defs><style>.cls-1,.cls-2{fill:#0968ac;}.cls-2{font-size:15.67px;font-family:Tahoma, Tahoma;}.cls-3{fill:#f49a21;}.cls-4{fill:#69b332;}</style></defs><title>BEST</title><g id="Layer_2" data-name="Layer 2"><g id="Logos"><g id="_Group_" data-name="&lt;Group&gt;"><path id="_Compound_Path_" data-name="&lt;Compound Path&gt;" class="cls-1" d="M151.62,72.15a11.76,11.76,0,0,1-1.27,5.57,11.41,11.41,0,0,1-3.42,4,16.24,16.24,0,0,1-5.45,2.66,29.67,29.67,0,0,1-7.5.79H121.05V42.79h12a63.52,63.52,0,0,1,7.22.3,14.2,14.2,0,0,1,4.62,1.41,8.11,8.11,0,0,1,3.54,3.2,9.33,9.33,0,0,1,1.11,4.65,9,9,0,0,1-1.67,5.34,11.26,11.26,0,0,1-4.65,3.69v.23a11.37,11.37,0,0,1,6.24,3.75,10.36,10.36,0,0,1,2.21,6.79m-8.36-19a5.93,5.93,0,0,0-.55-2.66A4,4,0,0,0,141,48.7a8.6,8.6,0,0,0-3.24-.94c-1.19-.11-2.84-.17-4.93-.17H127V60h6.81a22.9,22.9,0,0,0,4.14-.27,8.77,8.77,0,0,0,2.76-1.12,4.67,4.67,0,0,0,1.93-2.16,8.23,8.23,0,0,0,.58-3.3m2.13,19.24a9.38,9.38,0,0,0-.73-3.95,5.9,5.9,0,0,0-2.94-2.64,9.37,9.37,0,0,0-3.1-.91,44,44,0,0,0-4.77-.2H127V80.36h4.87a43.78,43.78,0,0,0,6.21-.34,10.08,10.08,0,0,0,4-1.45,6.54,6.54,0,0,0,3.28-6.19"/><polygon id="_Path_" data-name="&lt;Path&gt;" class="cls-1" points="157.59 85.16 157.59 42.8 185.82 42.8 185.82 47.81 163.57 47.81 163.57 59.41 184.3 59.41 184.3 64.43 163.57 64.43 163.57 80.14 185.82 80.14 185.82 85.16 157.59 85.16"/><path id="_Path_2" data-name="&lt;Path&gt;" class="cls-1" d="M204.93,85.91a31.39,31.39,0,0,1-8.34-1,43.21,43.21,0,0,1-6.46-2.34V75.57h.43a21.7,21.7,0,0,0,6.71,4,20.13,20.13,0,0,0,7.23,1.44q5,0,7.5-2a6.69,6.69,0,0,0,1.21-9.25A8,8,0,0,0,209,67.49c-1.39-.38-2.66-.69-3.81-.94s-2.6-.58-4.33-1a21.31,21.31,0,0,1-4.18-1.45,11.58,11.58,0,0,1-3.27-2.3,9.91,9.91,0,0,1-2.16-3.28,11.59,11.59,0,0,1-.77-4.37,10.73,10.73,0,0,1,4.26-8.63A16.67,16.67,0,0,1,205.61,42a35,35,0,0,1,7.16.71,29.62,29.62,0,0,1,6.24,2v6.75h-.45a19.88,19.88,0,0,0-5.51-3.23,18.12,18.12,0,0,0-7-1.39,11.3,11.3,0,0,0-6.74,1.84,5.64,5.64,0,0,0-2.57,4.82,6,6,0,0,0,1.51,4.29,9,9,0,0,0,4.38,2.33c1.27.32,2.83.69,4.66,1.09s3.36.79,4.57,1.13a12.94,12.94,0,0,1,6.81,4,10.39,10.39,0,0,1,2.15,6.66A11.88,11.88,0,0,1,219.7,78a11.4,11.4,0,0,1-3,4.09,16,16,0,0,1-4.91,2.85,20.38,20.38,0,0,1-6.85,1"/><polygon id="_Path_3" data-name="&lt;Path&gt;" class="cls-1" points="237.44 85.16 237.44 47.81 222.29 47.81 222.29 42.8 258.56 42.8 258.56 47.81 243.42 47.81 243.42 85.16 237.44 85.16"/><text class="cls-2" transform="translate(208.33 101.74)">PORTO</text><path id="_Path_4" data-name="&lt;Path&gt;" class="cls-1" d="M98.56,85.21l-9.93-5.72H62.71l-9.93,5.72c9.5,16.5,37.9,43.52,68.67,45.86-10.72-6-27.79-27.58-22.89-45.86"/><path id="_Compound_Path_2" data-name="&lt;Compound Path&gt;" class="cls-3" d="M77.31,54.21h0l-.2-.34ZM105.57,0c.16,12.29-10,37.85-28.27,42.75V54.21l13,22.45,9.92,5.74c9.54-16.48,18.74-54.58,5.38-82.4"/><path id="_Compound_Path_3" data-name="&lt;Compound Path&gt;" class="cls-4" d="M61.08,76.66h0l-.2.34Zm13-33.91c-19,0-56.65,11.06-74,36.54C10.56,73,37.78,69,51.16,82.4l9.92-5.74L74,54.21Z"/><path id="_Path_5" data-name="&lt;Path&gt;" class="cls-1" d="M69.6,70.12a6.08,6.08,0,1,1,6.07,6.07,6.08,6.08,0,0,1-6.07-6.07"/></g></g></g></svg>