<svg xmlns="http://www.w3.org/2000/svg" viewBox="0 0 267.11 135.41"><defs><style>.cls-1,.cls-2{fill:#fff;}.cls-2{font-size:16.19px;font-family:Tahoma, Tahoma;}</style></defs><title>BEST_White</title><g id="Layer_2" data-name="Layer 2"><g id="Logos"><g id="_Group_" data-name="&lt;Group&gt;"><path id="_Compound_Path_" data-name="&lt;Compound Path&gt;" class="cls-1" d="M156.64,74.53a12.12,12.12,0,0,1-1.32,5.76,11.65,11.65,0,0,1-3.53,4.12,16.66,16.66,0,0,1-5.63,2.75,30.56,30.56,0,0,1-7.75.81H125.05V44.21H137.4a65,65,0,0,1,7.46.31A14.5,14.5,0,0,1,149.62,46a8.35,8.35,0,0,1,3.66,3.3,9.65,9.65,0,0,1,1.16,4.81,9.29,9.29,0,0,1-1.74,5.52,11.5,11.5,0,0,1-4.8,3.81v.24a11.7,11.7,0,0,1,6.45,3.87,10.71,10.71,0,0,1,2.29,7M148,54.89a6.15,6.15,0,0,0-.57-2.74,4.07,4.07,0,0,0-1.81-1.84,8.94,8.94,0,0,0-3.35-1c-1.23-.12-2.93-.18-5.09-.18h-5.94V62h7a24.11,24.11,0,0,0,4.28-.28,9.36,9.36,0,0,0,2.85-1.16,4.79,4.79,0,0,0,2-2.24,8.54,8.54,0,0,0,.6-3.41m2.19,19.88a9.66,9.66,0,0,0-.75-4.08,6.08,6.08,0,0,0-3-2.72,9.73,9.73,0,0,0-3.21-1,47,47,0,0,0-4.93-.2h-7V83h5a44.44,44.44,0,0,0,6.41-.36,10.16,10.16,0,0,0,4.13-1.5,7.56,7.56,0,0,0,2.57-2.6,7.8,7.8,0,0,0,.81-3.79"/><polygon id="_Path_" data-name="&lt;Path&gt;" class="cls-1" points="162.8 87.97 162.8 44.21 191.96 44.21 191.96 49.39 168.98 49.39 168.98 61.38 190.4 61.38 190.4 66.56 168.98 66.56 168.98 82.8 191.96 82.8 191.96 87.97 162.8 87.97"/><path id="_Path_2" data-name="&lt;Path&gt;" class="cls-1" d="M211.7,88.75a32.5,32.5,0,0,1-8.61-1,43.43,43.43,0,0,1-6.67-2.42V78.07h.44a22.76,22.76,0,0,0,6.94,4.18,21,21,0,0,0,7.46,1.48q5.13,0,7.75-2a6.91,6.91,0,0,0,1.25-9.55,8.23,8.23,0,0,0-4.37-2.44c-1.44-.39-2.75-.72-3.94-1s-2.68-.6-4.47-1a22.08,22.08,0,0,1-4.32-1.5,12,12,0,0,1-3.37-2.38,10.18,10.18,0,0,1-2.24-3.39,11.87,11.87,0,0,1-.79-4.51,11.05,11.05,0,0,1,4.4-8.91,17.21,17.21,0,0,1,11.25-3.6,35.69,35.69,0,0,1,7.39.73,30.66,30.66,0,0,1,6.45,2.09v7h-.46a20.89,20.89,0,0,0-5.69-3.34,19,19,0,0,0-7.28-1.42,11.74,11.74,0,0,0-7,1.89,5.82,5.82,0,0,0-2.66,5,6.16,6.16,0,0,0,1.56,4.43,9.24,9.24,0,0,0,4.53,2.41c1.31.33,2.92.71,4.82,1.13s3.47.81,4.72,1.16a13.42,13.42,0,0,1,7,4.17,10.7,10.7,0,0,1,2.22,6.88,12.35,12.35,0,0,1-1.11,5,12.05,12.05,0,0,1-3.11,4.23,16.6,16.6,0,0,1-5.08,2.94,21,21,0,0,1-7.08,1"/><polygon id="_Path_3" data-name="&lt;Path&gt;" class="cls-1" points="245.29 87.97 245.29 49.39 229.65 49.39 229.65 44.21 267.11 44.21 267.11 49.39 251.47 49.39 251.47 87.97 245.29 87.97"/><text class="cls-2" transform="translate(215.22 105.1)">PORTO</text><path id="_Path_4" data-name="&lt;Path&gt;" class="cls-1" d="M101.82,88,91.56,82.12H64.78L54.53,88c9.81,17,39.15,45,70.93,47.38-11.07-6.21-28.7-28.5-23.64-47.38"/><path id="_Compound_Path_2" data-name="&lt;Compound Path&gt;" class="cls-1" d="M79.86,56h0l-.2-.35Zm29.2-56c.17,12.7-10.32,39.1-29.2,44.16V56L93.25,79.19l10.25,5.93c9.86-17,19.37-56.38,5.56-85.12"/><path id="_Compound_Path_3" data-name="&lt;Compound Path&gt;" class="cls-1" d="M63.1,79.19h0l-.2.35Zm13.4-35C56.83,44.14,18,55.59,0,81.91c10.91-6.49,39-10.62,52.85,3.21L63.1,79.19,76.49,56Z"/><path id="_Path_5" data-name="&lt;Path&gt;" class="cls-1" d="M71.9,72.44a6.28,6.28,0,1,1,6.27,6.27,6.28,6.28,0,0,1-6.27-6.27"/></g></g></g></svg>