<svg xmlns="http://www.w3.org/2000/svg" viewBox="0 0 898.13 287.84"><defs><style>.cls-1{fill:#fff;}</style></defs><title>SciTeCh-18_w</title><g id="Layer_2" data-name="Layer 2"><g id="espaçamento"><circle class="cls-1" cx="129.84" cy="143.93" r="24.72"/><path class="cls-1" d="M142.51,285.64a38,38,0,0,1-12.67,2.2c-21.78,0-41.35-19.09-54.66-49.27-.74-1.66-1.46-3.35-2.14-5.07a216.61,216.61,0,0,1-12.92-49.32c-.4-2.64-.75-5.32-1.07-8q3.08,2.52,6.29,5,.51,4,1.19,8a206.7,206.7,0,0,0,12,43.72c.7,1.72,1.42,3.41,2.16,5,.52,1.18,1,2.32,1.6,3.46,12.63,26.32,29.52,40.83,47.58,40.83a33.81,33.81,0,0,0,9.71-1.45A20.77,20.77,0,0,0,142.51,285.64Z"/><path class="cls-1" d="M78.5,55a206.94,206.94,0,0,0-12,43.7c-.45,2.62-.84,5.27-1.19,8a285.33,285.33,0,0,0,0,74.47q-3.21-2.47-6.29-5a284.82,284.82,0,0,1,0-64.47c.32-2.71.67-5.39,1.07-8A217.8,217.8,0,0,1,73,54.36C74.85,54.55,76.66,54.76,78.5,55Z"/><path class="cls-1" d="M168.19,266.06c-.1.11-.19.22-.28.34A71,71,0,0,1,154,279.64a9.39,9.39,0,0,1-3.25-4.29,63,63,0,0,0,13.32-12.44c.07-.09.13-.18.21-.27A10.27,10.27,0,0,1,168.19,266.06Z"/><path class="cls-1" d="M202.47,143.93a281.36,281.36,0,0,1-1.82,32.17q-.45,4.07-1,8a215.08,215.08,0,0,1-13,49.38c-.69,1.72-1.4,3.41-2.15,5.07A134,134,0,0,1,174,258.09a91.29,91.29,0,0,1-5.78,8,10.27,10.27,0,0,0-3.92-3.42,93.79,93.79,0,0,0,5.77-8,127.86,127.86,0,0,0,9-16.75c.75-1.64,1.47-3.33,2.16-5a204.64,204.64,0,0,0,12-43.78c.44-2.62.83-5.26,1.19-7.94a281.77,281.77,0,0,0,2.41-37.18,280.31,280.31,0,0,0-2.44-37.26q3.21,2.49,6.29,5A280.91,280.91,0,0,1,202.47,143.93Z"/><path class="cls-1" d="M200.64,111.68q-3.07-2.52-6.29-5c-.35-2.68-.74-5.32-1.19-7.94a206.51,206.51,0,0,0-12-43.7q-1-2.58-2.16-5.07c-.52-1.16-1.05-2.31-1.6-3.44C164.8,20.18,147.9,5.68,129.84,5.68S94.89,20.18,82.26,46.52c-.55,1.13-1.08,2.28-1.6,3.44-1.84-.27-3.66-.49-5.47-.68C88.5,19.09,108.06,0,129.84,0s41.35,19.09,54.66,49.28c.75,1.65,1.46,3.35,2.15,5.08a217.8,217.8,0,0,1,12.92,49.29C200,106.29,200.32,109,200.64,111.68Z"/><path class="cls-1" d="M194.35,106.67a279.91,279.91,0,0,0-31-20.71,280.14,280.14,0,0,0-33.47-16.5q-3.75-1.54-7.47-2.94A207,207,0,0,0,78.5,55c-1.84-.27-3.65-.48-5.46-.67a131.61,131.61,0,0,0-13.52-.72,93.75,93.75,0,0,0-19.34,1.87,21.65,21.65,0,0,0-2-4.91A101.7,101.7,0,0,1,59.9,48.42a141.91,141.91,0,0,1,15.29.86c1.81.19,3.63.41,5.47.68a217.82,217.82,0,0,1,49.18,13.47q3.74,1.47,7.47,3.09A278.27,278.27,0,0,1,166.17,81a282.29,282.29,0,0,1,27,17.69C193.61,101.35,194,104,194.35,106.67Z"/><path class="cls-1" d="M254.48,215.88c-8.77,15.19-28.19,23.55-54.7,23.55a141.4,141.4,0,0,1-15.27-.86c.75-1.66,1.46-3.35,2.15-5.07a131.61,131.61,0,0,0,13.52.72c24,0,41.5-7.51,49.39-21.17,9-15.64,4.91-37.53-11.58-61.63-.71-1-1.44-2.07-2.19-3.11-1.06-1.47-2.16-2.93-3.3-4.4a206.11,206.11,0,0,0-31.86-32.23c-.32-2.71-.67-5.39-1.07-8a215.28,215.28,0,0,1,36.23,35.86c1.15,1.47,2.26,2.93,3.34,4.41,1.64,2.25,3.2,4.52,4.68,6.78C260.32,176.08,264.1,199.23,254.48,215.88Z"/><path class="cls-1" d="M60.12,184.18a215.36,215.36,0,0,1-36.24-35.86c-1.15-1.45-2.27-2.93-3.33-4.4-1.26-1.73-2.48-3.46-3.64-5.2C.35,114-4.23,91,4,74.19c.37-.76.75-1.48,1.19-2.23a35.62,35.62,0,0,1,4.43-6.13l.42-.46A45.69,45.69,0,0,1,25.68,54.56a9.1,9.1,0,0,1,2.65,4.69A40,40,0,0,0,13.53,70l-.14.16a32.31,32.31,0,0,0-3.27,4.67,36.27,36.27,0,0,0-1.94,4C1.6,94.68,7.07,116.13,23.59,139.12l.29.4c1.06,1.47,2.17,2.95,3.31,4.4a207,207,0,0,0,31.86,32.23C59.37,178.86,59.72,181.54,60.12,184.18Z"/><path class="cls-1" d="M181.21,232.83c-.69,1.72-1.41,3.41-2.16,5a218.07,218.07,0,0,1-49.2-13.46c-2.49-1-5-2-7.47-3.09a280.79,280.79,0,0,1-28.84-14.5,279.63,279.63,0,0,1-27-17.72q-.68-3.95-1.19-8a276.22,276.22,0,0,0,31,20.76,280.67,280.67,0,0,0,33.46,16.49c2.49,1,5,2,7.46,2.92A206.48,206.48,0,0,0,181.21,232.83Z"/><path class="cls-1" d="M200.64,111.68q-3.07-2.52-6.29-5c-.35-2.68-.74-5.32-1.19-7.94,2.18,1.62,4.32,3.25,6.41,4.92C200,106.29,200.32,109,200.64,111.68Z"/><path class="cls-1" d="M73,233.5c.68,1.72,1.4,3.41,2.14,5.07a141.58,141.58,0,0,1-15.28.86c-26.5,0-45.92-8.36-54.69-23.55-9.62-16.65-5.84-39.8,10.66-65.18,1.48-2.26,3-4.53,4.68-6.78,1.08-1.48,2.18-2.94,3.33-4.4a215.4,215.4,0,0,1,36.24-35.87c2.1-1.67,4.23-3.3,6.41-4.92a283.49,283.49,0,0,1,55.85-32.21q3.72,1.4,7.47,2.94a286,286,0,0,0-64.51,37.22q-3.21,2.47-6.29,5a206.15,206.15,0,0,0-31.86,32.24q-1.73,2.21-3.31,4.4c-.75,1-1.47,2.06-2.18,3.1-16.49,24.11-20.61,46-11.58,61.63C18,226.71,35.55,234.22,59.5,234.22A132.14,132.14,0,0,0,73,233.5Z"/><path class="cls-1" d="M194.38,181.11c-.36,2.68-.75,5.32-1.19,7.94a280,280,0,0,1-27,17.77,277.22,277.22,0,0,1-28.87,14.5c-2.48,1.09-5,2.11-7.45,3.1a219,219,0,0,1-49.19,13.46c-.74-1.64-1.46-3.33-2.16-5a207.68,207.68,0,0,0,43.88-11.5q3.72-1.4,7.46-2.93a278.76,278.76,0,0,0,33.48-16.5A280.83,280.83,0,0,0,194.38,181.11Z"/><path class="cls-1" d="M235.8,148.31a218.19,218.19,0,0,1-36.19,35.81q.58-4,1-8a207.1,207.1,0,0,0,31.85-32.19C233.64,145.38,234.74,146.84,235.8,148.31Z"/><path class="cls-1" d="M246.12,133.48c-2.11,3.47-4.44,7-7,10.44-1.08-1.48-2.19-2.94-3.34-4.41,2-2.76,3.87-5.53,5.58-8.28A21.68,21.68,0,0,0,246.12,133.48Z"/><path class="cls-1" d="M259.64,93.92a59.37,59.37,0,0,1-1.21,9.85,4.35,4.35,0,0,1-.1.52,83.4,83.4,0,0,1-6.13,17.86,9.42,9.42,0,0,1-4.87-1.86,73.85,73.85,0,0,0,6-17.78c0-.09,0-.18,0-.27a49.47,49.47,0,0,0,.86-9.88,35.86,35.86,0,0,0-4.64-17.55c-7.89-13.66-25.43-21.17-49.39-21.17a131.81,131.81,0,0,0-13.53.72c-1.79.19-3.62.4-5.46.67a207.94,207.94,0,0,0-43.88,11.49q-3.74-1.62-7.47-3.09A218,218,0,0,1,179,50c1.84-.27,3.66-.49,5.47-.68a141.58,141.58,0,0,1,15.28-.86c26.51,0,45.93,8.37,54.7,23.54A40.55,40.55,0,0,1,259.64,93.92Z"/><path class="cls-1" d="M170.09,272.07a10.62,10.62,0,0,1-10.61,10.61,10.59,10.59,0,0,1-10.23-7.86,10.37,10.37,0,0,1-.37-2.75,10.6,10.6,0,0,1,10.6-10.59,10.23,10.23,0,0,1,3.59.63,8.09,8.09,0,0,1,1.2.53,10.27,10.27,0,0,1,3.92,3.42,8.19,8.19,0,0,1,.7,1.13A10.46,10.46,0,0,1,170.09,272.07Z"/><path class="cls-1" d="M263.56,112.84A10.6,10.6,0,0,1,253,123.44h0a10.6,10.6,0,0,1-.9-21.17c.29,0,.6,0,.9,0a10.63,10.63,0,0,1,10.6,10.61Z"/><path class="cls-1" d="M29.82,61.3a10.59,10.59,0,0,1-10.6,10.6A10.56,10.56,0,0,1,8.63,61.3a10.6,10.6,0,0,1,21.19,0Z"/><path class="cls-1" d="M397.69,107l-5.83,7.42a31,31,0,0,0-18.81-6.1c-11.79,0-16.43,6.76-16.43,13.12a13.57,13.57,0,0,0,5.3,10.46c3.18,2.65,8.35,4.24,12.72,5.57,5.83,1.72,12.32,3.57,17.88,8.34a25,25,0,0,1,8.75,18.42c0,12.05-9.14,24.64-28.22,24.64a41.57,41.57,0,0,1-27-9.54l6.22-7.15a31.57,31.57,0,0,0,20.8,7.41c13.25,0,18.42-8.21,18.42-15.36a15.87,15.87,0,0,0-5.83-11.79c-3.58-3.05-9-4.64-15.11-6.5-4.9-1.45-10.06-2.91-15.5-7.41a22.71,22.71,0,0,1-8.21-16.83c0-12.58,9.8-22.65,26.23-22.65A40.89,40.89,0,0,1,397.69,107Z"/><path class="cls-1" d="M458.1,183.2A34.64,34.64,0,0,1,439,188.9c-8.47,0-14.69-3.19-18.81-7.82-6.36-7.15-6.36-17.35-6.36-25.17,0-6.89,0-16.82,6.23-24,4.11-4.77,10.47-8,18.94-8a34,34,0,0,1,18.15,5.17l-4.5,7.55a26,26,0,0,0-13.65-4c-4.1,0-8.61,1.06-11.79,4.77-4.1,4.77-4.1,12.58-4.1,18.41,0,6.76,0,14.71,4.24,19.61,2.52,2.91,6.49,4.63,11.65,4.63a25.23,25.23,0,0,0,14.31-4.37Z"/><path class="cls-1" d="M482.87,108.35a6.23,6.23,0,1,1-6.22-6.22A6,6,0,0,1,482.87,108.35ZM472,124.78h9.27V188.1H472Z"/><path class="cls-1" d="M554.81,99.87v9.28H529.9V188.1h-9.8V109.15H495.19V99.87Z"/><path class="cls-1" d="M575.87,180.15A35,35,0,0,0,592,176.31l3.85,7.95a43.92,43.92,0,0,1-20,4.64c-9.14,0-16.43-3.31-20.66-9-5-6.89-5-14.84-5-23.45,0-10.33,0-16.43,4.77-23.05,4.24-6,12.19-9.41,21.59-9.41,6.63,0,11.93,1.73,15.9,4.91a18.21,18.21,0,0,1,6.62,13.38,15.76,15.76,0,0,1-6.62,13c-5.56,4-11.26,4-20.67,4H559.58c0,3.45,0,11.26,3,15.37C565.27,178.17,569.51,180.15,575.87,180.15Zm10.47-44.64c-2.26-1.86-5.7-2.78-9.81-2.78-6,0-10.73,1.72-13.64,5.16-3.31,3.85-3.31,10.47-3.31,13.12h12.18c8.35,0,12.06,0,14.84-2.12a8.23,8.23,0,0,0,3.18-6.62A9.65,9.65,0,0,0,586.34,135.51Z"/><path class="cls-1" d="M666,107.16l-5.69,7.42a27.63,27.63,0,0,0-17.49-6.23c-6.81,0-12.14,2.54-15.37,6.63-4.63,6.09-4.63,12.45-4.63,29s0,22.92,4.63,29c3.23,4.09,8.56,6.62,15.37,6.62a27.89,27.89,0,0,0,18.68-7l6,7.29a37.37,37.37,0,0,1-24.64,9c-11.06,0-18.78-4.64-23.45-10.6C613,170,613,161.08,613,144s0-26,6.36-34.31c4.67-6,12.39-10.6,23.45-10.6A37.1,37.1,0,0,1,666,107.16Z"/><path class="cls-1" d="M693.24,99.87V131.4A17.69,17.69,0,0,1,707.82,124a22.12,22.12,0,0,1,16.42,6.76c6.1,6.49,6.1,14.17,6.1,23.45V188.1h-9.28V154.19c0-8.22,0-13.78-3.84-17.62a15.11,15.11,0,0,0-20.13,0c-3.85,3.84-3.85,9.4-3.85,17.62V188.1H684V99.87Z"/><path class="cls-1" d="M775.06,99a6.4,6.4,0,0,1,6.76,6.75,15.46,15.46,0,0,1-1.06,4.9l-6.1,17.09h-6l3.84-15.63A6.81,6.81,0,0,1,775.06,99Z"/><path class="cls-1" d="M823,188.1h-9.81V120.27c0-5.43,0-8.34-2.25-10.06-1.59-1.2-3.84-1.2-8.74-1.2h-1.86V99.74h1.86c5.83,0,11.13,0,15.5,3.71,5.3,4.64,5.3,10.47,5.3,16.82Z"/><path class="cls-1" d="M887.93,104.78a23.36,23.36,0,0,1,8.61,18.41,22.85,22.85,0,0,1-10.47,19.34,23.68,23.68,0,0,1,12.06,20.93,24.63,24.63,0,0,1-9.41,19.61,30.33,30.33,0,0,1-35.76,0,24.63,24.63,0,0,1-9.41-19.61,23.69,23.69,0,0,1,12.05-20.93,22.86,22.86,0,0,1-10.46-19.34,23.36,23.36,0,0,1,8.61-18.41,28.47,28.47,0,0,1,34.18,0ZM859.18,151a16.21,16.21,0,0,0,0,24.9,20.18,20.18,0,0,0,23.32,0,16.21,16.21,0,0,0,0-24.9,20.18,20.18,0,0,0-23.32,0ZM861,111.13a15,15,0,0,0,0,24.11,18.61,18.61,0,0,0,19.6,0,14.49,14.49,0,0,0,6.1-12.05,14.34,14.34,0,0,0-6.1-12.06,18.66,18.66,0,0,0-19.6,0Z"/></g></g></svg>